<svg xmlns="http://www.w3.org/2000/svg" viewBox="0 0 542 86.23"><defs><style>.cls-1{fill:#369;}.cls-2,.cls-3{fill:#fff;}.cls-3{font-size:36.79px;font-family:HiraMaruProN-W4-83pv-RKSJ-H, Hiragino Maru Gothic ProN;}.cls-4{letter-spacing:0.25em;}</style></defs><title>facebook_login</title><g id="レイヤー_2" data-name="レイヤー 2"><g id="レイヤー_1-2" data-name="レイヤー 1"><rect class="cls-1" width="542" height="86.23" rx="43" ry="43"/><g id="Facebook"><path class="cls-2" d="M89.31,14.23H39.72A5.72,5.72,0,0,0,34,20V69.51a5.72,5.72,0,0,0,5.72,5.72h27V51.44H58.77v-9H66.7V35.55c0-7.88,4.74-12.21,11.75-12.21a69.37,69.37,0,0,1,7.16.34V32h-5c-3.81,0-4.53,1.82-4.53,4.48v5.89h9.16l-1.19,9H76.21V75.23H89.28A5.72,5.72,0,0,0,95,69.51V20A5.71,5.71,0,0,0,89.31,14.23Z"/></g><text class="cls-3" transform="translate(124.42 59.04)">Faceboo<tspan class="cls-4" x="153.94" y="0">k</tspan><tspan x="182.85" y="0">でログイン</tspan></text></g></g></svg>