<svg xmlns="http://www.w3.org/2000/svg" viewBox="0 0 650.55 206.7"><defs><style>.cls-1{font-size:158.47px;fill:#6ab82d;font-family:ToppanBunkyuGothicPr6N-Regular-83pv-RKSJ-H, Toppan Bunkyu Gothic;letter-spacing:-0.05em;}.cls-2{fill:#6c3;}.cls-3{fill:#f9f;}.cls-4,.cls-5{fill:none;stroke-linecap:round;stroke-miterlimit:10;stroke-width:3px;}.cls-4{stroke:#fff;}.cls-5{stroke:#6c3;}</style></defs><title>logo</title><g id="レイヤー_2" data-name="レイヤー 2"><g id="レイヤー_1-2" data-name="レイヤー 1"><text class="cls-1" transform="translate(191.64 153.61)">Clover</text><g id="heart"><g id="_748-heart-selected_2x.png" data-name="748-heart-selected@2x.png"><path class="cls-2" d="M67.3,156.62c23.41-18.38,14-57.2,15.63-71.14C69,83.8,33.52,65.41,10.11,83.79A26.43,26.43,0,0,0,25,131,26.43,26.43,0,0,0,67.3,156.62"/></g></g><g id="heart-2" data-name="heart"><g id="_748-heart-selected_2x.png-2" data-name="748-heart-selected@2x.png"><path class="cls-2" d="M152.71,132.74A26.36,26.36,0,0,0,151.18,111,26.44,26.44,0,0,0,151,61.53c-27.9-10.36-56.07,18-68.84,23.82C88,98.12,90.8,138,118.7,148.34A26.46,26.46,0,0,0,152.71,132.74Z"/></g></g><g id="heart-3" data-name="heart"><g id="_748-heart-selected_2x.png-3" data-name="748-heart-selected@2x.png"><path class="cls-3" d="M106.17,5.57a26.43,26.43,0,0,0-39.42,8.19A26.43,26.43,0,0,0,25.38,40.9C31.88,70,71,78.14,82.84,85.66c7.52-11.86,39.41-35.94,32.91-65a26.38,26.38,0,0,0-9.58-15.1Z"/></g></g><path class="cls-4" d="M131.77,149.72a56,56,0,0,0-43.48-63"/><path class="cls-5" d="M89.39,152.7a1.89,1.89,0,0,0-2.26,1.45,3.14,3.14,0,0,0,2.39,3.74,5,5,0,0,0,6-3.86,8.17,8.17,0,0,0-6.25-9.73,13.22,13.22,0,0,0-15.73,10.1,21.4,21.4,0,0,0,16.35,25.47,34.62,34.62,0,0,0,41.2-26.45c.27-1.24.5-2.47.68-3.7"/></g></g></svg>